<svg xmlns="http://www.w3.org/2000/svg" width="132" height="45" viewBox="0 0 132 45" fill="none"><path d="M82.27 10.0976C82.117 10.6282 81.7639 11.1701 81.2554 11.4195C81.1823 11.4552 80.7135 11.6201 80.6687 11.6201H71.3498V42.4599C71.3498 43.0658 70.4304 44.0266 69.7864 44.0465C67.239 44.0448 64.4615 44.2766 61.9238 44.1156C61.1279 44.0652 60.3887 43.7795 60.0186 43.0284C59.9608 42.9116 59.7992 42.4582 59.7992 42.355V11.6201H51.767L52.7363 13.6693C56.7439 23.3442 53.4959 34.4368 44.9587 40.3767C33.9596 48.0297 18.7206 44.1882 12.6276 32.3559L11.605 30.0976V42.3023C11.605 43.3776 10.498 44.0499 9.53318 44.1156C6.97105 44.2902 4.13966 44.034 1.56449 44.0476C0.579315 43.7914 0.0697218 43.0386 0 42.0421V2.14251C0.0776576 1.03773 0.689849 0.224876 1.82014 0.0780633C4.3766 0.232245 7.21989 -0.149241 9.74292 0.069561C10.63 0.146652 11.605 0.941366 11.605 1.88233V14.2968L12.19 12.9658C15.4544 5.91146 22.2186 0.973677 30.0065 0.176694C31.4179 0.0321492 32.8492 0.0780634 34.2561 0.0684271C49.6385 -0.0364391 65.025 0.15402 80.4074 0.0689936C81.1069 0.124544 81.7134 0.481657 82.0603 1.09328L82.2689 1.64539V10.0965L82.27 10.0976ZM32.1752 11.8452C24.0478 11.9591 19.1848 21.0558 23.6589 27.8886C27.637 33.964 36.5008 34.1205 40.7334 28.2247C45.6678 21.3506 40.6013 11.7273 32.1752 11.8452Z" fill="white"></path><path d="M23.261 0.0718231L21.9295 0.656806C19.0862 2.02347 16.5201 3.98191 14.4948 6.39894C13.9773 7.01623 13.5323 7.69021 13.0233 8.31374V1.77859C13.0233 1.09668 13.988 0.0723897 14.6767 0.0723897H23.2605L23.261 0.0718231Z" fill="#E1051A"></path><path d="M85.3667 20.249C84.9783 20.249 84.6165 20.1745 84.2813 20.0255C83.9461 19.8766 83.6508 19.6744 83.3954 19.419C83.14 19.1636 82.9404 18.8656 82.7968 18.5251C82.6584 18.1792 82.5893 17.7961 82.5893 17.3758C82.5893 16.9661 82.6584 16.5883 82.7968 16.2425C82.9404 15.8913 83.14 15.588 83.3954 15.3326C83.6508 15.0772 83.9461 14.875 84.2813 14.726C84.6165 14.5771 84.9783 14.5026 85.3667 14.5026C86.1489 14.5026 86.8113 14.7899 87.354 15.3645L87.0268 15.6279C86.8033 15.4044 86.5506 15.2262 86.2686 15.0932C85.9866 14.9602 85.686 14.8937 85.3667 14.8937C85.0368 14.8937 84.7309 14.9575 84.4489 15.0852C84.1669 15.2129 83.9168 15.3911 83.6986 15.6199C83.4858 15.8434 83.3182 16.1041 83.1958 16.4021C83.0735 16.7001 83.0123 17.0246 83.0123 17.3758C83.0123 17.7323 83.0735 18.0595 83.1958 18.3575C83.3182 18.6554 83.4858 18.9135 83.6986 19.1317C83.9168 19.3551 84.1669 19.5334 84.4489 19.6664C84.7309 19.7941 85.0368 19.8579 85.3667 19.8579C85.686 19.8579 85.9866 19.7914 86.2686 19.6584C86.5506 19.5254 86.8033 19.3471 87.0268 19.1237L87.354 19.3871C86.8113 19.9617 86.1489 20.249 85.3667 20.249ZM90.9995 20.1692H88.4136V14.5824H88.8286V19.7861H90.9995V20.1692ZM92.452 20.1692H92.037V14.5824H92.452V20.1692ZM97.7702 20.1692H97.1157L93.9871 14.9655V20.1612H93.5721V14.5664H94.2345L97.3552 19.7382V14.5664H97.7702V20.1692ZM99.3024 20.1692H98.8874V14.5824H99.3024V20.1692ZM103.12 20.249C102.732 20.249 102.37 20.1745 102.035 20.0255C101.699 19.8766 101.404 19.6744 101.149 19.419C100.893 19.1636 100.694 18.8656 100.55 18.5251C100.412 18.1792 100.343 17.7961 100.343 17.3758C100.343 16.9661 100.412 16.5883 100.55 16.2425C100.694 15.8913 100.893 15.588 101.149 15.3326C101.404 15.0772 101.699 14.875 102.035 14.726C102.37 14.5771 102.732 14.5026 103.12 14.5026C103.902 14.5026 104.565 14.7899 105.107 15.3645L104.78 15.6279C104.557 15.4044 104.304 15.2262 104.022 15.0932C103.74 14.9602 103.439 14.8937 103.12 14.8937C102.79 14.8937 102.484 14.9575 102.202 15.0852C101.92 15.2129 101.67 15.3911 101.452 15.6199C101.239 15.8434 101.072 16.1041 100.949 16.4021C100.827 16.7001 100.766 17.0246 100.766 17.3758C100.766 17.7323 100.827 18.0595 100.949 18.3575C101.072 18.6554 101.239 18.9135 101.452 19.1317C101.67 19.3551 101.92 19.5334 102.202 19.6664C102.484 19.7941 102.79 19.8579 103.12 19.8579C103.439 19.8579 103.74 19.7914 104.022 19.6584C104.304 19.5254 104.557 19.3471 104.78 19.1237L105.107 19.3871C104.565 19.9617 103.902 20.249 103.12 20.249ZM105.907 20.1692L107.871 14.5824H108.413L110.377 20.1692H109.938L109.427 18.7087H106.857L106.346 20.1692H105.907ZM108.142 15.0613L106.977 18.3734H109.307L108.142 15.0613ZM88.0564 26.3918C88.0564 26.7961 87.9845 27.1739 87.8409 27.5251C87.7025 27.8709 87.5083 28.1742 87.2582 28.4349C87.0082 28.6903 86.7182 28.8925 86.3883 29.0415C86.0584 29.1852 85.7046 29.257 85.3268 29.257C84.9437 29.257 84.5872 29.1825 84.2573 29.0335C83.9274 28.8845 83.6375 28.6797 83.3874 28.419C83.1373 28.1583 82.9404 27.855 82.7968 27.5091C82.6584 27.1633 82.5893 26.7908 82.5893 26.3918C82.5893 25.9927 82.6611 25.6176 82.8048 25.2664C82.9484 24.9152 83.1479 24.6093 83.4033 24.3486C83.6587 24.0825 83.9514 23.875 84.2813 23.726C84.6112 23.5771 84.9597 23.5026 85.3268 23.5026C85.7099 23.5026 86.0664 23.5797 86.3963 23.734C86.7262 23.883 87.0135 24.0905 87.2582 24.3566C87.5083 24.6226 87.7025 24.9312 87.8409 25.2824C87.9845 25.6282 88.0564 25.998 88.0564 26.3918ZM87.6334 26.3918C87.6334 26.0512 87.5748 25.7293 87.4578 25.426C87.3407 25.1174 87.1758 24.8461 86.9629 24.612C86.7554 24.3778 86.5107 24.1943 86.2287 24.0613C85.952 23.9282 85.6514 23.8617 85.3268 23.8617C85.0022 23.8617 84.699 23.9282 84.417 24.0613C84.1403 24.1943 83.8955 24.3778 83.6827 24.612C83.4752 24.8461 83.3102 25.1148 83.1879 25.4181C83.0708 25.7213 83.0123 26.0459 83.0123 26.3918C83.0123 26.7323 83.0708 27.0542 83.1879 27.3575C83.3049 27.6554 83.4672 27.9215 83.6747 28.1556C83.8875 28.3844 84.135 28.5653 84.417 28.6983C84.699 28.8313 85.0022 28.8978 85.3268 28.8978C85.6514 28.8978 85.952 28.834 86.2287 28.7063C86.5107 28.5733 86.7554 28.3924 86.9629 28.1636C87.1758 27.9348 87.3407 27.6687 87.4578 27.3655C87.5748 27.0622 87.6334 26.7376 87.6334 26.3918ZM92.7066 29.1692H92.2117L90.6714 26.703H89.5061V29.1692H89.0911L89.0991 23.5824H91.254C91.4988 23.5824 91.7222 23.6542 91.9244 23.7979C92.1319 23.9415 92.2995 24.1331 92.4272 24.3725C92.5549 24.6066 92.6188 24.8647 92.6188 25.1467C92.6188 25.4021 92.5549 25.6495 92.4272 25.8889C92.2995 26.1284 92.124 26.3252 91.9005 26.4796C91.6823 26.6285 91.4376 26.703 91.1662 26.703L92.7066 29.1692ZM92.2038 25.1467C92.2038 24.9498 92.1639 24.7636 92.084 24.588C92.0042 24.4124 91.8925 24.2714 91.7488 24.165C91.6052 24.0533 91.4402 23.9974 91.254 23.9974H89.5061V26.296H91.2301C91.4056 26.296 91.5653 26.2348 91.7089 26.1124C91.8579 25.99 91.9776 25.8411 92.0681 25.6655C92.1585 25.4846 92.2038 25.3116 92.2038 25.1467ZM97.7824 23.9655H95.9307V29.1692H95.5157V23.9655H93.6641V23.5824H97.7824V23.9655ZM103.566 26.3918C103.566 26.7961 103.494 27.1739 103.35 27.5251C103.212 27.8709 103.018 28.1742 102.768 28.4349C102.518 28.6903 102.228 28.8925 101.898 29.0415C101.568 29.1852 101.214 29.257 100.836 29.257C100.453 29.257 100.097 29.1825 99.7667 29.0335C99.4368 28.8845 99.1468 28.6797 98.8967 28.419C98.6466 28.1583 98.4498 27.855 98.3061 27.5091C98.1678 27.1633 98.0986 26.7908 98.0986 26.3918C98.0986 25.9927 98.1704 25.6176 98.3141 25.2664C98.4578 24.9152 98.6573 24.6093 98.9127 24.3486C99.1681 24.0825 99.4607 23.875 99.7906 23.726C100.12 23.5771 100.469 23.5026 100.836 23.5026C101.219 23.5026 101.576 23.5797 101.906 23.734C102.236 23.883 102.523 24.0905 102.768 24.3566C103.018 24.6226 103.212 24.9312 103.35 25.2824C103.494 25.6282 103.566 25.998 103.566 26.3918ZM103.143 26.3918C103.143 26.0512 103.084 25.7293 102.967 25.426C102.85 25.1174 102.685 24.8461 102.472 24.612C102.265 24.3778 102.02 24.1943 101.738 24.0613C101.461 23.9282 101.161 23.8617 100.836 23.8617C100.512 23.8617 100.208 23.9282 99.9263 24.0613C99.6496 24.1943 99.4049 24.3778 99.192 24.612C98.9845 24.8461 98.8196 25.1148 98.6972 25.4181C98.5801 25.7213 98.5216 26.0459 98.5216 26.3918C98.5216 26.7323 98.5801 27.0542 98.6972 27.3575C98.8142 27.6554 98.9765 27.9215 99.184 28.1556C99.3969 28.3844 99.6443 28.5653 99.9263 28.6983C100.208 28.8313 100.512 28.8978 100.836 28.8978C101.161 28.8978 101.461 28.834 101.738 28.7063C102.02 28.5733 102.265 28.3924 102.472 28.1636C102.685 27.9348 102.85 27.6687 102.967 27.3655C103.084 27.0622 103.143 26.7376 103.143 26.3918ZM104.6 29.1692L104.608 23.5824H106.771C107.032 23.5824 107.266 23.6569 107.474 23.8059C107.681 23.9495 107.846 24.1411 107.969 24.3805C108.091 24.6146 108.152 24.87 108.152 25.1467C108.152 25.3968 108.088 25.6415 107.961 25.881C107.833 26.1204 107.663 26.3173 107.45 26.4716C107.237 26.6259 107.003 26.703 106.747 26.703H105.015V29.1692H104.6ZM105.015 26.296H106.747C106.928 26.296 107.093 26.2401 107.242 26.1284C107.391 26.0113 107.511 25.865 107.601 25.6894C107.697 25.5085 107.745 25.3276 107.745 25.1467C107.745 24.9445 107.702 24.7556 107.617 24.58C107.538 24.4044 107.426 24.2634 107.282 24.157C107.138 24.0506 106.968 23.9974 106.771 23.9974H105.015V26.296ZM112.216 29.1692H109.191V23.5824H112.216V23.9495H109.606V26.2481H111.721V26.6152H109.606V28.8021H112.216V29.1692ZM110.46 23.0556H110.795L111.114 21.9941H110.675L110.46 23.0556ZM117.617 26.3598C117.617 26.7483 117.545 27.1127 117.401 27.4533C117.258 27.7938 117.058 28.0944 116.803 28.3551C116.548 28.6105 116.252 28.8101 115.917 28.9537C115.582 29.0974 115.225 29.1692 114.848 29.1692H113.251V23.5584H114.848C115.231 23.5584 115.587 23.6303 115.917 23.7739C116.252 23.9176 116.548 24.1198 116.803 24.3805C117.058 24.6359 117.258 24.9339 117.401 25.2744C117.545 25.6096 117.617 25.9714 117.617 26.3598ZM117.194 26.3598C117.194 26.0299 117.135 25.7187 117.018 25.426C116.901 25.1334 116.736 24.8753 116.524 24.6519C116.311 24.4284 116.061 24.2528 115.773 24.1251C115.491 23.9974 115.183 23.9336 114.848 23.9336H113.674V28.7861H114.848C115.183 28.7861 115.491 28.7223 115.773 28.5946C116.061 28.4615 116.311 28.2833 116.524 28.0598C116.736 27.8363 116.901 27.5783 117.018 27.2856C117.135 26.993 117.194 26.6844 117.194 26.3598ZM119.067 29.1692H118.652V23.5824H119.067V29.1692ZM122.885 29.249C122.497 29.249 122.135 29.1745 121.8 29.0255C121.464 28.8766 121.169 28.6744 120.914 28.419C120.658 28.1636 120.459 27.8656 120.315 27.5251C120.177 27.1792 120.108 26.7961 120.108 26.3758C120.108 25.9661 120.177 25.5883 120.315 25.2425C120.459 24.8913 120.658 24.588 120.914 24.3326C121.169 24.0772 121.464 23.875 121.8 23.726C122.135 23.5771 122.497 23.5026 122.885 23.5026C123.667 23.5026 124.33 23.7899 124.872 24.3645L124.545 24.6279C124.322 24.4044 124.069 24.2262 123.787 24.0932C123.505 23.9602 123.204 23.8937 122.885 23.8937C122.555 23.8937 122.249 23.9575 121.967 24.0852C121.685 24.2129 121.435 24.3911 121.217 24.6199C121.004 24.8434 120.837 25.1041 120.714 25.4021C120.592 25.7001 120.531 26.0246 120.531 26.3758C120.531 26.7323 120.592 27.0595 120.714 27.3575C120.837 27.6554 121.004 27.9135 121.217 28.1317C121.435 28.3551 121.685 28.5334 121.967 28.6664C122.249 28.7941 122.555 28.8579 122.885 28.8579C123.204 28.8579 123.505 28.7914 123.787 28.6584C124.069 28.5254 124.322 28.3471 124.545 28.1237L124.872 28.3871C124.33 28.9617 123.667 29.249 122.885 29.249ZM125.672 29.1692L127.636 23.5824H128.178L130.142 29.1692H129.703L129.192 27.7087H126.622L126.111 29.1692H125.672ZM127.907 24.0613L126.742 27.3734H129.072L127.907 24.0613Z" fill="white"></path></svg>